<svg height="470pt" viewBox="0 -42 470.272 470" width="470pt" xmlns="http://www.w3.org/2000/svg"><path d="m72.023438 4.136719h337.113281v347.726562h-337.113281zm0 0" fill="#f9dd9d"/><path d="m409.136719 355.871094h-337.121094c-2.207031 0-4-1.792969-4-4v-347.734375c0-2.207031 1.792969-4 4-4h337.121094c2.207031 0 4 1.792969 4 4v347.726562c0 2.214844-1.792969 4.007813-4 4.007813zm-333.121094-8h329.121094v-339.734375h-329.121094zm0 0" fill="#63312d"/><path d="m4 4.136719h337.113281v347.726562h-337.113281zm0 0" fill="#f9dd9d"/><path d="m20 20.136719h321.121094v-16h-337.121094v347.734375h16zm0 0" fill="#ffeecf"/><path d="m341.121094 355.871094h-337.121094c-2.207031 0-4-1.792969-4-4v-347.734375c0-2.207031 1.792969-4 4-4h337.121094c2.207031 0 4 1.792969 4 4v347.726562c0 2.214844-1.792969 4.007813-4 4.007813zm-333.121094-8h329.121094v-339.734375h-329.121094zm0 0" fill="#63312d"/><path d="m216.414062 115.566406-14.644531 11.304688-14.648437-11.304688-14.625 11.304688-14.585938-11.304688-14.613281 11.304688-14.59375-11.304688v-111.429687h87.710937zm0 0" fill="#f8f3f3"/><path d="m172.496094 130.871094c-.863282 0-1.726563-.277344-2.457032-.839844l-12.136718-9.398438-12.167969 9.40625c-1.4375 1.121094-3.453125 1.121094-4.886719 0l-14.589844-11.304687c-.984374-.757813-1.554687-1.925781-1.554687-3.167969v-111.429687c0-2.207031 1.792969-4 4-4h87.710937c2.210938 0 4 1.792969 4 4v111.429687c0 1.242188-.574218 2.410156-1.550781 3.167969l-14.648437 11.304687c-1.4375 1.113282-3.453125 1.113282-4.886719 0l-12.199219-9.414062-12.175781 9.40625c-.730469.5625-1.601563.839844-2.457031.839844zm14.625-19.304688c.855468 0 1.726562.28125 2.445312.832032l12.203125 9.417968 10.644531-8.214844v-105.464843h-79.710937v105.472656l10.59375 8.199219 12.167969-9.410156c1.4375-1.117188 3.445312-1.109376 4.894531 0l12.136719 9.402343 12.175781-9.410156c.71875-.542969 1.59375-.824219 2.449219-.824219zm0 0" fill="#63312d"/><path d="m49.304688 256.304688h71v45.519531h-71zm0 0" fill="#82d9ff"/><path d="m120.304688 305.824219h-71c-2.207032 0-4-1.792969-4-4v-45.519531c0-2.207032 1.792968-4 4-4h71c2.207031 0 4 1.792968 4 4v45.519531c0 2.214843-1.792969 4-4 4zm-67-8h63v-37.519531h-63zm0 0" fill="#63312d"/><path d="m256.472656 239.96875h209.800782v141.335938h-209.800782zm0 0" fill="#82d9ff"/><g fill="#63312d"><path d="m466.273438 385.304688h-209.800782c-2.207031 0-4-1.792969-4-4v-141.335938c0-2.207031 1.792969-4 4-4h209.800782c2.207031 0 4 1.792969 4 4v141.335938c0 2.207031-1.792969 4-4 4zm-205.800782-8h201.800782v-133.335938h-201.800782zm0 0"/><path d="m286.472656 262.800781h8v95.664063h-8zm0 0"/><path d="m306.472656 262.800781h8v79.167969h-8zm0 0"/><path d="m326.472656 262.800781h8v79.167969h-8zm0 0"/><path d="m346.472656 262.800781h8v95.664063h-8zm0 0"/><path d="m366.472656 262.800781h8v79.167969h-8zm0 0"/><path d="m386.472656 262.800781h8v79.167969h-8zm0 0"/><path d="m406.472656 262.800781h8v79.167969h-8zm0 0"/><path d="m426.472656 262.800781h8v95.664063h-8zm0 0"/><path d="m306.382812 350.375h8.097657v8.097656h-8.097657zm0 0"/><path d="m326.425781 350.375h8.09375v8.097656h-8.09375zm0 0"/><path d="m366.425781 350.375h8.09375v8.097656h-8.09375zm0 0"/><path d="m386.425781 350.375h8.09375v8.097656h-8.09375zm0 0"/><path d="m406.425781 350.375h8.09375v8.097656h-8.09375zm0 0"/></g></svg>