<?xml version="1.0" encoding="iso-8859-1"?>
<!-- Generator: Adobe Illustrator 19.0.0, SVG Export Plug-In . SVG Version: 6.00 Build 0)  -->
<svg version="1.1" id="Capa_1" xmlns="http://www.w3.org/2000/svg" xmlns:xlink="http://www.w3.org/1999/xlink" x="0px" y="0px"
	 viewBox="0 0 496.485 496.485" style="enable-background:new 0 0 496.485 496.485;" xml:space="preserve">
<circle style="fill:#E1E6E9;" cx="248.242" cy="248.242" r="248.242"/>
<path style="fill:#FFFFFF;" d="M69.042,295.564h250.57c32.582,0,60.509-25.6,61.285-58.182v-0.776H7.758v0.776
	C7.758,269.964,36.461,295.564,69.042,295.564z"/>
<path style="fill:#193651;" d="M318.836,303.321H69.042C31.03,303.321,0,273.842,0,237.382v-0.776c0-4.655,3.103-7.758,7.758-7.758
	h372.364c4.655,0,7.758,3.103,7.758,7.758v0.776C387.879,273.842,356.849,303.321,318.836,303.321z M16.291,244.364
	c3.879,24.824,26.376,43.442,52.752,43.442h250.57c26.376,0,48.873-19.394,52.751-43.442H16.291z"/>
<rect x="31.03" y="7.758" style="fill:#F16051;" width="326.594" height="228.848"/>
<path style="fill:#193651;" d="M356.849,244.364H31.03c-4.655,0-7.758-3.103-7.758-7.758V7.758C23.273,3.103,26.376,0,31.03,0
	h325.818c4.655,0,7.758,3.103,7.758,7.758v228.848C364.606,240.485,361.503,244.364,356.849,244.364z M38.788,228.848h310.303
	V15.515H38.788V228.848z"/>
<g>
	<rect x="61.541" y="39.044" style="fill:#FFFFFF;" width="264.533" height="166.788"/>
	<path style="fill:#FFFFFF;" d="M467.006,190.836H276.945c-11.636,0-21.721,10.085-21.721,21.721v254.448
		c0,11.636,10.085,21.721,21.721,21.721h190.061c11.636,0,21.721-10.085,21.721-21.721V212.558
		C488.727,200.921,478.642,190.836,467.006,190.836z"/>
</g>
<path style="fill:#193651;" d="M467.006,183.079H276.945c-16.291,0-29.479,13.188-29.479,29.479v254.448
	c0,16.291,13.188,29.479,29.479,29.479h190.061c16.291,0,29.479-13.188,29.479-29.479V212.558
	C496.485,196.267,483.297,183.079,467.006,183.079z M480.97,467.006c0,7.758-6.206,13.964-13.964,13.964H276.945
	c-7.758,0-13.964-6.206-13.964-13.964V212.558c0-7.758,6.206-13.964,13.964-13.964h190.061c7.758,0,13.964,6.206,13.964,13.964
	V467.006z"/>
<rect x="283.927" y="234.279" style="fill:#2EA2DB;" width="175.321" height="202.473"/>
<g>
	<path style="fill:#193651;" d="M397.188,210.23h-49.648c-3.103,0-4.655,2.327-4.655,4.655l0,0c0,3.103,2.327,4.655,4.655,4.655
		h49.648c3.103,0,4.655-2.327,4.655-4.655l0,0C401.842,212.558,399.515,210.23,397.188,210.23z"/>
	<circle style="fill:#193651;" cx="372.364" cy="460.024" r="13.188"/>
	<polygon style="fill:#193651;" points="323.491,411.927 105.503,411.927 105.503,330.473 121.018,330.473 121.018,396.412 
		323.491,396.412 	"/>
	<polygon style="fill:#193651;" points="135.758,363.83 113.261,342.109 90.764,363.83 79.903,352.97 113.261,319.612 
		146.618,352.97 	"/>
	<polygon style="fill:#193651;" points="463.903,148.945 448.388,148.945 448.388,68.267 251.345,68.267 251.345,52.752 
		463.903,52.752 	"/>
	<polygon style="fill:#193651;" points="456.145,160.582 422.788,127.224 433.648,115.588 456.145,138.085 478.642,115.588 
		489.503,127.224 	"/>
	<rect x="219.539" y="52.752" style="fill:#193651;" width="16.291" height="15.515"/>
	<rect x="187.733" y="52.752" style="fill:#193651;" width="16.291" height="15.515"/>
	<rect x="155.152" y="52.752" style="fill:#193651;" width="16.291" height="15.515"/>
	<rect x="338.23" y="396.412" style="fill:#193651;" width="15.515" height="15.515"/>
	<rect x="369.261" y="396.412" style="fill:#193651;" width="15.515" height="15.515"/>
	<rect x="400.291" y="396.412" style="fill:#193651;" width="15.515" height="15.515"/>
</g>
<g>
</g>
<g>
</g>
<g>
</g>
<g>
</g>
<g>
</g>
<g>
</g>
<g>
</g>
<g>
</g>
<g>
</g>
<g>
</g>
<g>
</g>
<g>
</g>
<g>
</g>
<g>
</g>
<g>
</g>
</svg>
